<svg width="20" height="20" viewBox="0 0 20 20" fill="none" xmlns="http://www.w3.org/2000/svg">
<path fill-rule="evenodd" clip-rule="evenodd" d="M12.9451 5.30664H7.00019C6.0513 5.30664 5.2793 6.07864 5.2793 7.02753V12.9724C5.2793 13.9213 6.0513 14.6935 7.00019 14.6935H12.9451C13.894 14.6935 14.6662 13.9215 14.6662 12.9724V7.02753C14.6662 6.07864 13.8942 5.30664 12.9451 5.30664ZM9.97263 13.0902C8.26885 13.0902 6.88263 11.704 6.88263 9.99997C6.88263 8.2962 8.26885 6.90997 9.97263 6.90997C11.6766 6.90997 13.0629 8.2962 13.0629 9.99997C13.0629 11.7038 11.6764 13.0902 9.97263 13.0902ZM12.4309 6.81775C12.4309 7.22086 12.7589 7.54886 13.1622 7.54886C13.5653 7.54886 13.8933 7.22086 13.8933 6.81775C13.8933 6.41464 13.5653 6.08664 13.1622 6.08664C12.7589 6.08664 12.4309 6.41464 12.4309 6.81775Z" fill="#9B9B9B"/>
<path d="M9.97292 8.21582C8.98937 8.21582 8.18848 9.01626 8.18848 9.99982C8.18848 10.9838 8.98937 11.7845 9.97292 11.7845C10.9569 11.7845 11.7571 10.9838 11.7571 9.99982C11.7571 9.01649 10.9567 8.21582 9.97292 8.21582Z" fill="#9B9B9B"/>
<path fill-rule="evenodd" clip-rule="evenodd" d="M0 9.97311C0 4.46533 4.46533 0 9.97311 0C15.4809 0 19.9462 4.46533 19.9462 9.97311C19.9462 15.4809 15.4809 19.9462 9.97311 19.9462C4.46533 19.9462 0 15.4809 0 9.97311ZM12.9456 15.9991C14.6147 15.9991 15.9722 14.6416 15.9722 12.9724V7.02756C15.9722 5.35867 14.6147 4.00089 12.9456 4.00089H7.00067C5.33178 4.00089 3.974 5.35867 3.974 7.02756V12.9724C3.974 14.6416 5.33178 15.9991 7.00067 15.9991H12.9456Z" fill="#9B9B9B"/>
</svg>
