<svg width="34" height="34" viewBox="0 0 34 34" fill="none" xmlns="http://www.w3.org/2000/svg">
<path fill-rule="evenodd" clip-rule="evenodd" d="M22.0074 9.02136H11.9011C10.288 9.02136 8.97559 10.3338 8.97559 11.9469V22.0532C8.97559 23.6663 10.288 24.9791 11.9011 24.9791H22.0074C23.6205 24.9791 24.9333 23.6667 24.9333 22.0532V11.9469C24.9333 10.3338 23.6209 9.02136 22.0074 9.02136ZM16.9543 22.2534C14.0578 22.2534 11.7013 19.8968 11.7013 17C11.7013 14.1036 14.0578 11.747 16.9543 11.747C19.8511 11.747 22.2076 14.1036 22.2076 17C22.2076 19.8965 19.8507 22.2534 16.9543 22.2534ZM21.1332 11.5903C21.1332 12.2755 21.6908 12.8331 22.3765 12.8331C23.0618 12.8331 23.6194 12.2755 23.6194 11.5903C23.6194 10.905 23.0618 10.3474 22.3765 10.3474C21.6908 10.3474 21.1332 10.905 21.1332 11.5903Z" fill="#9B9B9B"/>
<path d="M16.9545 13.9668C15.2824 13.9668 13.9209 15.3276 13.9209 16.9996C13.9209 18.6724 15.2824 20.0335 16.9545 20.0335C18.6273 20.0335 19.9876 18.6724 19.9876 16.9996C19.9876 15.3279 18.6269 13.9668 16.9545 13.9668Z" fill="#9B9B9B"/>
<path fill-rule="evenodd" clip-rule="evenodd" d="M0 16.9543C0 7.59107 7.59107 0 16.9543 0C26.3175 0 33.9086 7.59107 33.9086 16.9543C33.9086 26.3175 26.3175 33.9086 16.9543 33.9086C7.59107 33.9086 0 26.3175 0 16.9543ZM22.0074 27.1985C24.8449 27.1985 27.1528 24.8906 27.1528 22.0532V11.9468C27.1528 9.10973 24.8449 6.80151 22.0074 6.80151H11.9011C9.06402 6.80151 6.7558 9.10973 6.7558 11.9468V22.0532C6.7558 24.8906 9.06402 27.1985 11.9011 27.1985H22.0074Z" fill="#9B9B9B"/>
</svg>
