<svg width="34" height="34" viewBox="0 0 34 34" fill="none" xmlns="http://www.w3.org/2000/svg">
<circle cx="16.879" cy="16.8797" r="16.879" fill="#9B9B9B"/>
<path d="M18.2417 22.6031C16.9656 22.5044 16.4294 21.8716 15.4287 21.2642C14.8787 24.1499 14.2065 26.9163 12.2155 28.3614C11.6002 23.9998 13.1176 20.7238 13.8223 17.2464C12.6211 15.2245 13.9667 11.1547 16.5001 12.1576C19.6182 13.3906 13.8006 19.6758 17.7061 20.4608C21.7834 21.2804 23.4479 13.3861 20.9192 10.8183C17.2659 7.11113 10.2851 10.7341 11.1435 16.0411C11.3526 17.3385 12.6933 17.7324 11.6791 19.5226C9.34088 19.0048 8.64343 17.1607 8.7331 14.7022C8.87782 10.6778 12.3491 7.86003 15.831 7.47009C20.2344 6.97724 24.3674 9.08704 24.9379 13.229C25.5796 17.9039 22.9499 22.9666 18.2417 22.6031Z" fill="white"/>
</svg>
