<svg width="34" height="34" viewBox="0 0 34 34" fill="none" xmlns="http://www.w3.org/2000/svg">
<circle cx="16.879" cy="16.879" r="16.879" fill="#9B9B9B"/>
<path d="M28.1652 12.092C27.4419 12.4127 26.6638 12.6297 25.8478 12.7265C26.681 12.2274 27.3204 11.4376 27.6221 10.4949C26.8425 10.9573 25.9787 11.2928 25.0601 11.4737C24.3241 10.6899 23.2756 10.2 22.1144 10.2C19.8867 10.2 18.0799 12.0068 18.0799 14.2346C18.0799 14.5508 18.1157 14.8586 18.1849 15.1541C14.8318 14.9859 11.8588 13.3798 9.86873 10.9381C9.5215 11.5338 9.32232 12.2274 9.32232 12.9666C9.32232 14.3661 10.0351 15.6015 11.1171 16.3248C10.4561 16.3041 9.83352 16.1226 9.28982 15.8196C9.28952 15.8368 9.28952 15.8539 9.28952 15.8708C9.28952 17.8256 10.6808 19.4561 12.5261 19.8265C12.1879 19.9192 11.8308 19.9682 11.4634 19.9682C11.2028 19.9682 10.9504 19.9433 10.7043 19.8963C11.2176 21.4988 12.7073 22.6654 14.4732 22.6982C13.0921 23.7805 11.3527 24.4253 9.46193 24.4253C9.13697 24.4253 8.81503 24.4063 8.5 24.3687C10.2845 25.5139 12.4058 26.1815 14.6841 26.1815C22.1051 26.1815 26.1635 20.0338 26.1635 14.7019C26.1635 14.527 26.1595 14.3528 26.1517 14.1801C26.9406 13.6114 27.6245 12.9011 28.1652 12.092Z" fill="white"/>
</svg>
