<svg width="20" height="20" viewBox="0 0 20 20" fill="none" xmlns="http://www.w3.org/2000/svg">
<circle cx="9.92885" cy="9.92885" r="9.92885" fill="#9B9B9B"/>
<path fill-rule="evenodd" clip-rule="evenodd" d="M9.55347 14.2834H10.3328C10.3328 14.2834 10.5682 14.2576 10.6883 14.128C10.799 14.0091 10.7954 13.7857 10.7954 13.7857C10.7954 13.7857 10.7802 12.7401 11.2655 12.5861C11.7439 12.4344 12.3582 13.5967 13.0094 14.0436C13.5018 14.3818 13.8759 14.3077 13.8759 14.3077L15.617 14.2834C15.617 14.2834 16.5278 14.2273 16.0959 13.5112C16.0606 13.4526 15.8444 12.9815 14.8014 12.0133C13.7098 11.0001 13.8559 11.164 15.171 9.41121C15.9719 8.34378 16.2921 7.69209 16.1921 7.41298C16.0967 7.14714 15.5076 7.2174 15.5076 7.2174L13.5473 7.22962C13.5473 7.22962 13.402 7.20979 13.2942 7.27422C13.1889 7.3374 13.1211 7.48466 13.1211 7.48466C13.1211 7.48466 12.8108 8.31068 12.397 9.01316C11.5241 10.4955 11.1751 10.5737 11.0324 10.4817C10.7006 10.2671 10.7834 9.61988 10.7834 9.16006C10.7834 7.7236 11.0013 7.12466 10.3591 6.96962C10.146 6.91811 9.98922 6.88413 9.44427 6.87864C8.7448 6.87139 8.15276 6.88077 7.81754 7.04502C7.59453 7.15422 7.4225 7.39758 7.52728 7.41156C7.65683 7.42891 7.95029 7.49068 8.10586 7.70254C8.30675 7.97581 8.29967 8.58962 8.29967 8.58962C8.29967 8.58962 8.41506 10.2806 8.03011 10.4907C7.76586 10.6347 7.40338 10.3406 6.62515 8.99581C6.22639 8.30696 5.92533 7.54555 5.92533 7.54555C5.92533 7.54555 5.86728 7.40325 5.76374 7.32714C5.63807 7.23493 5.4625 7.20555 5.4625 7.20555L3.59967 7.21776C3.59967 7.21776 3.32002 7.22555 3.21737 7.34714C3.12604 7.45528 3.21011 7.679 3.21011 7.679C3.21011 7.679 4.66852 11.091 6.31984 12.8105C7.834 14.387 9.55347 14.2834 9.55347 14.2834Z" fill="white"/>
</svg>
